<?xml version="1.0" encoding="UTF-8" standalone="no"?>
<!-- Created with Inkscape (http://www.inkscape.org/) -->

<svg
   width="90.062508"
   height="45.71875"
   viewBox="0 0 23.829038 12.096419"
   version="1.1"
   id="svg5"
   xml:space="preserve"
   xmlns:inkscape="http://www.inkscape.org/namespaces/inkscape"
   xmlns:sodipodi="http://sodipodi.sourceforge.net/DTD/sodipodi-0.dtd"
   xmlns="http://www.w3.org/2000/svg"
   xmlns:svg="http://www.w3.org/2000/svg"><sodipodi:namedview
     id="namedview7"
     pagecolor="#ffffff"
     bordercolor="#000000"
     borderopacity="0.25"
     inkscape:showpageshadow="2"
     inkscape:pageopacity="0.0"
     inkscape:pagecheckerboard="0"
     inkscape:deskcolor="#d1d1d1"
     inkscape:document-units="px"
     showgrid="false" /><defs
     id="defs2" /><path
     id="path396"
     style="font-size:16.9333px;line-height:0;font-family:'Open Sans';-inkscape-font-specification:'Open Sans, Normal';text-orientation:upright;display:inline;fill:#1f1f1f;fill-opacity:1;fill-rule:evenodd;stroke-width:0;stroke-linecap:square;stroke-miterlimit:0;paint-order:stroke fill markers;stop-color:#000000"
     d="M 10.484114,-3.2579004e-8 V 12.088151 h 1.30638 V 4.4483072 c 0,-0.396873 -0.0055,-0.7854837 -0.01654,-1.1658203 -0.01102,-0.3858488 -0.0248,-0.7413863 -0.04134,-1.0666015 -0.01654,-0.3252155 -0.03583,-0.6008259 -0.05788,-0.8268229 h 0.06615 l 4.0597,10.6990885 h 1.149284 l 4.10931,-10.6825521 h 0.06615 c -0.01654,0.2370215 -0.03308,0.518144 -0.04961,0.8433594 -0.01653,0.3197034 -0.03031,0.6614601 -0.04134,1.0252604 -0.01103,0.3582881 -0.01654,0.7165817 -0.01654,1.0748697 v 1.1327474 h 1.389062 V -3.2579004e-8 H 20.339848 L 16.45378,10.054166 H 16.3959 L 12.567708,-3.2579004e-8 Z M 7.9540363,1.7942057 -2.0281287e-8,5.7298827 V 6.5153644 L 7.9540363,10.03763 V 8.8222 L 1.4882812,6.0688801 7.9540363,3.0179036 Z M 21.712369,6.5401691 c -0.366006,0 -0.677892,0.1290882 -0.93586,0.3870565 C 20.51854,7.185194 20.389452,7.4970795 20.389452,7.863086 v 0.529166 h -0.264583 c -0.14552,0 -0.269992,0.05192 -0.373621,0.155546 -0.103627,0.103629 -0.155546,0.228101 -0.155546,0.373621 v 2.645833 c 0,0.145521 0.05192,0.269992 0.155546,0.373621 0.103629,0.103629 0.228101,0.155546 0.373621,0.155546 h 3.175 c 0.145521,0 0.269993,-0.05192 0.373621,-0.155546 0.103628,-0.103629 0.155546,-0.2281 0.155546,-0.373621 V 8.921419 c 0,-0.14552 -0.05192,-0.269992 -0.155546,-0.373621 C 23.569862,8.444171 23.44539,8.392252 23.299869,8.392252 H 23.035286 V 7.863086 c 0,-0.3660065 -0.129088,-0.677892 -0.387057,-0.9358604 -0.257968,-0.2579683 -0.569853,-0.3870565 -0.93586,-0.3870565 z m 0,0.5291667 c 0.220486,0 0.407899,0.07717 0.56224,0.2315104 0.154339,0.15434 0.23151,0.3417538 0.23151,0.5622398 v 0.529166 h -1.5875 V 7.863086 c 0,-0.220486 0.07717,-0.4078998 0.23151,-0.5622398 0.15434,-0.1543401 0.341754,-0.2315104 0.56224,-0.2315104 z m -1.5875,1.8520832 h 3.175 v 2.645833 h -3.175 z m 1.5875,0.79375 c -0.14552,0 -0.269993,0.05192 -0.373621,0.155546 -0.103628,0.103629 -0.155546,0.2281 -0.155546,0.373621 0,0.14552 0.05192,0.269992 0.155546,0.37362 0.103628,0.103629 0.228101,0.155546 0.373621,0.155546 0.145521,0 0.269993,-0.05192 0.373621,-0.155546 0.103628,-0.103628 0.155546,-0.2281 0.155546,-0.37362 0,-0.145521 -0.05192,-0.269992 -0.155546,-0.373621 C 21.982362,9.767087 21.85789,9.715169 21.712369,9.715169 Z M -2.0281286e-8,10.97194 v 1.124479 H 7.9623043 V 10.97194 Z"
     inkscape:export-filename="limit_to_max.png"
     inkscape:export-xdpi="96"
     inkscape:export-ydpi="96" /><path
     id="path2529"
     style="font-size:16.9333px;line-height:0;font-family:'Open Sans';-inkscape-font-specification:'Open Sans, Normal';text-orientation:upright;display:none;fill:#1f1f1f;fill-opacity:1;fill-rule:evenodd;stroke-width:0;stroke-linecap:square;stroke-miterlimit:0;paint-order:stroke fill markers;stop-color:#000000"
     d="M 10.484114,-3.2579004e-8 V 12.088151 h 1.30638 V 4.4483072 c 0,-0.396873 -0.0055,-0.7854837 -0.01654,-1.1658203 -0.01102,-0.3858488 -0.0248,-0.7413863 -0.04134,-1.0666015 -0.01654,-0.3252155 -0.03583,-0.6008259 -0.05788,-0.8268229 h 0.06615 l 4.0597,10.6990885 h 1.149284 l 4.10931,-10.6825521 h 0.06615 c -0.01654,0.2370215 -0.03308,0.518144 -0.04961,0.8433594 -0.01653,0.3197034 -0.03031,0.6614601 -0.04134,1.0252604 -0.01103,0.3582881 -0.01654,0.7165817 -0.01654,1.0748697 v 1.1327474 h 1.389062 V -3.2579004e-8 H 20.339848 L 16.45378,10.054166 H 16.3959 L 12.567708,-3.2579004e-8 Z M 7.9540363,1.7942057 -2.0281287e-8,5.7298827 V 6.5153644 L 7.9540363,10.03763 V 8.8222 L 1.4882812,6.0688801 7.9540363,3.0179036 Z M 21.712369,6.5401691 c -0.366006,0 -0.677892,0.1290882 -0.93586,0.3870565 C 20.51854,7.185194 20.389452,7.4970797 20.389452,7.863086 h 0.529167 c 0,-0.220486 0.07717,-0.4078998 0.23151,-0.5622398 0.15434,-0.1543401 0.341754,-0.2315104 0.56224,-0.2315104 0.220486,0 0.407899,0.07717 0.56224,0.2315104 0.154339,0.15434 0.23151,0.3417538 0.23151,0.5622398 v 0.529166 h -2.38125 c -0.14552,0 -0.269992,0.05192 -0.373621,0.155546 -0.103627,0.103629 -0.155546,0.228101 -0.155546,0.373621 v 2.645833 c 0,0.145521 0.05192,0.269992 0.155546,0.373621 0.103629,0.103629 0.228101,0.155546 0.373621,0.155546 h 3.175 c 0.145521,0 0.269993,-0.05192 0.373621,-0.155546 0.103628,-0.103629 0.155546,-0.2281 0.155546,-0.373621 V 8.921419 c 0,-0.14552 -0.05192,-0.269992 -0.155546,-0.373621 C 23.569862,8.444171 23.44539,8.392252 23.299869,8.392252 H 23.035286 V 7.863086 c 0,-0.3660063 -0.129088,-0.677892 -0.387057,-0.9358604 -0.257968,-0.2579683 -0.569853,-0.3870565 -0.93586,-0.3870565 z m -1.5875,2.3812499 h 3.175 v 2.645833 h -3.175 z m 1.5875,0.79375 c -0.14552,0 -0.269993,0.05192 -0.373621,0.155546 -0.103628,0.103629 -0.155546,0.2281 -0.155546,0.373621 0,0.14552 0.05192,0.269992 0.155546,0.37362 0.103628,0.103629 0.228101,0.155546 0.373621,0.155546 0.145521,0 0.269993,-0.05192 0.373621,-0.155546 0.103628,-0.103628 0.155546,-0.2281 0.155546,-0.37362 0,-0.145521 -0.05192,-0.269992 -0.155546,-0.373621 C 21.982362,9.767087 21.85789,9.715169 21.712369,9.715169 Z M -2.0281286e-8,10.97194 v 1.124479 H 7.9623043 V 10.97194 Z"
     inkscape:export-filename="unlimit_to_max.svg"
     inkscape:export-xdpi="96"
     inkscape:export-ydpi="96" /></svg>
